PathFileType	4	(X/Y/Z)	Walk6.trc
DataRate	CameraRate	NumFrames	NumMarkers	Units	OrigDataRate	OrigDataStartFrame	OrigNumFrames
200.000000	200.000000	4	59	mm	200.000000	428	600
Frame#	Times		LFHD		RFHD		CLAV		STRN		LASI		RASI		RACR1		RUA1		RElbow		RFA1		RWRR		RWRU		RCAR		LACR1		LUA1		LElbow		LFA1		LWRR		RTH2		RTB1		RTB2		LTH1		LTH3		LTH2		LTH4		LMFC		LTB1		LTB2		LTB4		LMT1		LLFC		LCAR		LTB3		LWRU		RTB4		RTB3		RTH3		RMFC		RMMAL		RTH4		RLFC		RMT1		RToe		RTH1		LBHD		RElbowM		RCAL		LMT5		LToe		RBack		RPSI		C7		T10		LPSI		LMMAL		LLMAL		LCAL		LElbowM		RBHD
			X1	Y1	Z1	X2	Y2	Z2	X3	Y3	Z3	X4	Y4	Z4	X5	Y5	Z5	X6	Y6	Z6	X7	Y7	Z7	X8	Y8	Z8	X9	Y9	Z9	X10	Y10	Z10	X11	Y11	Z11	X12	Y12	Z12	X13	Y13	Z13	X14	Y14	Z14	X15	Y15	Z15	X16	Y16	Z16	X17	Y17	Z17	X18	Y18	Z18	X19	Y19	Z19	X20	Y20	Z20	X21	Y21	Z21	X22	Y22	Z22	X23	Y23	Z23	X24	Y24	Z24	X25	Y25	Z25	X26	Y26	Z26	X27	Y27	Z27	X28	Y28	Z28	X29	Y29	Z29	X30	Y30	Z30	X31	Y31	Z31	X32	Y32	Z32	X33	Y33	Z33	X34	Y34	Z34	X35	Y35	Z35	X36	Y36	Z36	X37	Y37	Z37	X38	Y38	Z38	X39	Y39	Z39	X40	Y40	Z40	X41	Y41	Z41	X42	Y42	Z42	X43	Y43	Z43	X44	Y44	Z44	X45	Y45	Z45	X46	Y46	Z46	X47	Y47	Z47	X48	Y48	Z48	X49	Y49	Z49	X50	Y50	Z50	X51	Y51	Z51	X52	Y52	Z52	X53	Y53	Z53	X54	Y54	Z54	X55	Y55	Z55	X56	Y56	Z56	X57	Y57	Z57	X58	Y58	Z58	X59	Y59	Z59

428	2.14	549.17	1678.1	26.847	551.2	1679	126.09	565.35	1420.5	79.316	635.36	1264.5	67.346	506.79	1008.5	-117.89	548.1	995.38	248.18	452.76	1493.1	256.58	432.01	1321.2	368	443.31	1171.1	413.2	477.98	1020.8	426.95	508.47	905.36	356.69	494.47	906.9	437.63	532.35	824.62	404.66	436.91	1486.9	-95.856	399.99	1319	-189.68	389.35	1158.6	-248.5	422.67	1023.2	-269.52	488.75	903.03	-219.79	544.57	713.28	244.06	564.32	380.81	145.36	530.72	292.25	192.18	481.8	774.8	-155.23	518.68	606.79	-155.88	555.64	703.48	-138.27	499.59	692.18	-156.79	535.36	509.98	-1.3027	516.13	392.2	-97.449	434.77	336.64	-130.08	466.73	326.72	-77.435	353.48	56.272	-50.855	502.64	527.81	-156.35	502.76	816.42	-255	409.61	262.74	-60.021	441.51	884.27	-275.28	547.48	296.43	133.11	530.62	212.87	120.75	509.03	614.68	240.9	497.77	507.99	73.699	475.98	85.001	56.842	489	696.5	256.33	509.92	498.39	228.72	603.2	28.097	90.817	645.1	37.387	123.86	467.84	778.98	273.07	403.56	1591.4	18.987	393.22	1101.4	314.7	381.35	46.859	93.493	293.34	78.978	-116.87	391.63	39.523	-95.791	310.59	1370.9	200.4	273.06	1038.6	119.04	366.94	1492.8	88.916	312.4	1175.7	80.626	276.58	1041.9	34.509	280.24	173.55	27.632	245.82	181.17	-55.133	193.72	181.4	7.1399	337.05	1094.1	-153.58	421.41	1599.4	166.74
429	2.145	555.27	1678.8	26.957	557.21	1679.8	126.2	571.22	1421.3	79.419	641.27	1265.4	67.435	513.4	1009.3	-117.48	553.82	996.81	248.16	458.37	1493.9	256.61	437.99	1321.9	368.11	450.28	1171.9	413.59	486.34	1022	427.28	518.21	906.91	356.95	503.93	908.29	437.87	542.64	826.35	404.99	442.95	1487.8	-95.841	405.32	1320	-189.62	393.34	1159.7	-248.28	425.24	1024	-269.4	490.17	903.09	-219.75	547.88	713.01	244.21	565.06	380.55	145.53	531.15	292.09	192.32	489.91	775.97	-154.95	528.42	608.31	-155.17	564.46	705.33	-137.82	508.48	693.51	-156.29	545.6	511.77	-0.60849	529.01	393.82	-96.974	448.89	336.63	-129.91	481.03	327.28	-77.268	374.51	55.044	-51.763	513.2	529.23	-155.5	502.95	816.14	-254.98	425.23	262.01	-60.123	442.67	884.88	-275.24	548.03	296.22	133.26	530.94	212.7	120.88	511.34	614.78	241.04	498.72	508.04	73.83	476.01	85.003	56.887	492.17	696.8	256.5	511.15	498.39	228.81	603.18	28.167	90.925	645.06	37.42	123.98	471.85	779.48	273.32	409.61	1592.3	18.992	401.15	1101.9	314.72	381.33	46.913	93.52	313.81	76.305	-117.83	413.21	39.616	-96.531	316.41	1371.5	200.27	278.92	1039.6	118.86	372.91	1493.6	88.861	318.47	1176.5	80.624	282.74	1042.7	34.28	297.64	169.74	27.027	263.23	176.69	-55.763	210.79	175.28	6.3289	340.57	1095.8	-153.26	427.37	1600.3	166.77
430	2.15	561.37	1679.5	27.04	563.23	1680.5	126.28	577.1	1422.1	79.511	647.18	1266.2	67.517	520.06	1010	-117	559.54	998.2	248.11	463.97	1494.7	256.62	443.96	1322.6	368.22	457.26	1172.7	413.99	494.72	1023.2	427.6	527.92	908.43	357.19	513.4	909.64	438.11	552.93	828.05	405.29	448.99	1488.5	-95.84	410.64	1321	-189.59	397.33	1160.7	-248.09	427.83	1024.8	-269.29	491.63	903.15	-219.71	551.2	712.71	244.32	565.81	380.28	145.69	531.59	291.94	192.44	497.98	777.07	-154.66	538.08	609.78	-154.43	573.19	707.12	-137.35	517.31	694.77	-155.76	555.78	513.51	0.14411	541.87	395.43	-96.459	463.05	336.59	-129.71	495.37	327.83	-77.068	395.62	53.865	-52.64	523.7	530.6	-154.62	503.19	815.89	-254.95	440.94	261.27	-60.199	443.87	885.47	-275.2	548.59	296.01	133.4	531.28	212.53	121	513.67	614.86	241.16	499.74	508.09	73.922	476.05	85.005	56.917	495.35	697.07	256.64	512.39	498.38	228.89	603.16	28.227	91.022	645.02	37.435	124.08	475.88	779.94	273.55	415.67	1593	18.977	409.06	1102.3	314.78	381.31	46.979	93.563	334.4	73.679	-118.74	434.81	39.773	-97.245	322.23	1372.1	200.13	284.76	1040.5	118.69	378.9	1494.4	88.796	324.52	1177.2	80.594	288.89	1043.4	34.036	315.24	165.9	26.457	280.85	172.2	-56.352	228.14	169.12	5.5664	344.05	1097.3	-152.99	433.35	1601.1	166.78
431	2.155	567.48	1680.1	27.093	569.25	1681.2	126.32	582.98	1422.8	79.592	653.08	1266.9	67.597	526.75	1010.7	-116.46	565.27	999.53	248.03	469.58	1495.4	256.62	449.94	1323.2	368.33	464.26	1173.4	414.4	503.11	1024.3	427.9	537.6	909.89	357.42	522.89	910.95	438.32	563.22	829.71	405.57	455.05	1489.3	-95.853	415.96	1321.9	-189.58	401.32	1161.7	-247.93	430.43	1025.5	-269.19	493.12	903.21	-219.67	554.52	712.4	244.41	566.58	380.02	145.84	532.04	291.78	192.54	506	778.11	-154.36	547.67	611.2	-153.66	581.85	708.86	-136.83	526.06	695.95	-155.2	565.89	515.18	0.95082	554.69	397.02	-95.908	477.23	336.55	-129.47	509.73	328.37	-76.837	416.81	52.746	-53.49	534.12	531.91	-153.71	503.49	815.65	-254.89	456.72	260.54	-60.248	445.12	886.04	-275.15	549.17	295.78	133.53	531.65	212.36	121.11	516.03	614.93	241.25	500.85	508.14	73.983	476.11	85.005	56.935	498.55	697.32	256.76	513.65	498.37	228.95	603.15	28.279	91.11	644.98	37.428	124.18	479.91	780.36	273.75	421.74	1593.7	18.942	416.96	1102.7	314.85	381.29	47.055	93.619	355.07	71.119	-119.61	456.41	40.004	-97.943	328.07	1372.6	199.99	290.59	1041.4	118.53	384.89	1495.1	88.723	330.56	1177.9	80.533	295.02	1044	33.777	333.04	162.06	25.927	298.65	167.71	-56.897	245.76	162.97	4.8595	347.5	1098.8	-152.77	439.35	1601.9	166.78
